<?xml version="1.0" encoding="utf-8"?>
<!DOCTYPE svg PUBLIC "-//W3C//DTD SVG 20010904//EN" "http://www.w3.org/TR/2001/REC-SVG-20010904/DTD/svg10.dtd">
<svg version="1.0" xmlns="http://www.w3.org/2000/svg" width="199pt" height="81pt" viewBox="0 0 199 81" preserveAspectRatio="xMidYMid meet">
<g fill="#FFFFFF4A">
<path d="M 53.50 73.61 C 48.53 72.04 45.45 70.46 41.16 67.26 L 37.83 64.77 L 42.78 61.94 C 49.16 58.30 52.58 54.16 54.48 47.77 C 56.38 41.35 56.38 39.64 54.44 33.12 C 52.60 26.91 47.56 20.96 41.88 18.28 L 37.82 16.37 L 41.43 13.62 C 50.14 6.98 52.31 6.53 77.80 6.17 C 104.34 5.79 105.11 5.98 107.03 13.12 C 107.76 15.82 108.03 26.43 107.82 43.71 L 107.50 70.18 L 104.69 72.59 C 101.91 74.99 101.76 75.00 79.69 74.93 C 64.82 74.89 56.18 74.45 53.50 73.61Z"/></g>
</svg>
