<?xml version="1.0" encoding="utf-8"?>
<!DOCTYPE svg PUBLIC "-//W3C//DTD SVG 20010904//EN" "http://www.w3.org/TR/2001/REC-SVG-20010904/DTD/svg10.dtd">
<svg version="1.0" xmlns="http://www.w3.org/2000/svg" width="199pt" height="81pt" viewBox="0 0 199 81" preserveAspectRatio="xMidYMid meet">
<g fill="#5186DFF5">
<path d="M 68.00 72.95 C 57.50 72.29 49.00 70.70 49.00 69.39 C 49.00 69.10 49.90 69.12 51.00 69.43 C 57.65 71.32 57.14 72.35 57.19 57.00 C 57.29 25.99 56.89 23.00 51.56 15.09 L 48.16 10.03 L 53.26 8.52 C 57.41 7.28 65.12 7.00 94.44 7.00 C 130.21 7.00 130.53 7.02 131.85 9.14 C 140.05 22.26 143.22 36.31 141.21 50.57 C 140.66 54.46 139.27 59.72 138.11 62.27 C 136.95 64.81 136.00 67.30 136.00 67.81 C 136.00 68.32 135.07 69.92 133.93 71.37 L 131.85 74.00 L 105.68 73.84 C 91.28 73.74 74.33 73.35 68.00 72.95Z"/></g>
<g fill="#76B3ECDB">
<path d="M 133.93 71.37 C 135.07 69.92 136.00 68.32 136.00 67.81 C 136.00 67.30 136.95 64.81 138.11 62.27 C 144.00 49.33 142.69 29.63 134.94 14.50 C 130.78 6.36 134.32 7.06 95.40 6.75 L 60.50 6.47 L 103.60 6.24 C 132.23 6.08 147.73 6.36 149.77 7.07 C 154.93 8.87 156.00 13.31 156.00 32.98 C 156.00 47.83 155.74 50.63 153.86 55.63 C 150.42 64.83 140.45 73.90 133.68 73.98 C 131.98 74.00 132.00 73.82 133.93 71.37Z"/></g>
<g fill="#76B3ECDB">
<path d="M 54.00 70.91 C 55.17 70.07 54.91 69.94 52.78 70.28 C 51.09 70.55 50.30 70.32 50.69 69.69 C 51.07 69.08 50.70 68.90 49.79 69.25 C 47.12 70.28 37.24 63.20 34.78 58.50 C 34.05 57.09 34.71 57.39 37.03 59.50 C 38.83 61.15 40.03 62.00 39.69 61.40 C 39.34 60.79 39.71 59.44 40.50 58.40 C 42.56 55.68 42.33 54.77 39.75 55.50 C 38.51 55.85 39.80 54.79 42.61 53.13 C 48.18 49.85 52.59 45.19 54.56 40.51 L 55.82 37.52 L 56.63 41.51 C 57.47 45.62 57.68 64.94 56.92 68.50 C 56.47 70.62 55.15 71.97 53.50 71.97 C 52.95 71.97 53.17 71.49 54.00 70.91Z"/></g>
<g fill="#B4CDF26B">
<path d="M 36.59 59.25 C 35.02 57.74 34.08 57.17 34.51 58.00 C 35.14 59.21 35.04 59.26 33.96 58.27 C 32.20 56.64 33.32 55.67 36.96 55.67 C 38.58 55.67 39.68 55.30 39.40 54.84 C 39.12 54.39 39.59 54.29 40.45 54.62 C 42.34 55.35 42.35 55.95 40.50 58.40 C 39.71 59.44 39.30 60.68 39.59 61.15 C 40.55 62.71 39.49 62.03 36.59 59.25Z"/></g>
<g fill="#EDF3FC19">
<path d="M 66.75 74.27 C 69.09 74.06 72.91 74.06 75.25 74.27 C 77.59 74.48 75.67 74.65 71.00 74.65 C 66.33 74.65 64.41 74.48 66.75 74.27Z"/></g>
<g fill="#B4CDF26B">
<path d="M 82.25 74.27 C 84.31 74.06 87.69 74.06 89.75 74.27 C 91.81 74.49 90.12 74.66 86.00 74.66 C 81.88 74.66 80.19 74.49 82.25 74.27Z"/></g>
<g fill="#B4CDF26B">
<path d="M 125.75 74.28 C 127.54 74.05 130.46 74.05 132.25 74.28 C 134.04 74.50 132.57 74.68 129.00 74.68 C 125.42 74.68 123.96 74.50 125.75 74.28Z"/></g>
<g fill="#76B3ECDB">
<path d="M 69.75 73.28 C 71.54 73.05 74.46 73.05 76.25 73.28 C 78.04 73.50 76.58 73.68 73.00 73.68 C 69.42 73.68 67.96 73.50 69.75 73.28Z"/></g>
<g fill="#EDF3FC19">
<path d="M 33.17 58.69 C 30.32 55.65 30.43 54.98 33.75 55.12 C 35.44 55.19 35.83 55.41 34.75 55.69 C 32.58 56.26 32.56 56.86 34.65 59.17 C 37.08 61.85 35.73 61.41 33.17 58.69Z"/></g>
</svg>
