<?xml version="1.0" encoding="utf-8"?>
<!DOCTYPE svg PUBLIC "-//W3C//DTD SVG 20010904//EN" "http://www.w3.org/TR/2001/REC-SVG-20010904/DTD/svg10.dtd">
<svg version="1.0" xmlns="http://www.w3.org/2000/svg" width="199pt" height="81pt" viewBox="0 0 199 81" preserveAspectRatio="xMidYMid meet">
<g fill="#C26F42F6">
<path d="M 55.56 72.88 C 50.28 71.64 49.46 70.63 54.50 71.57 C 57.92 72.20 58.33 72.10 57.31 70.87 C 56.53 69.93 56.44 68.93 57.05 67.97 C 57.99 66.50 57.42 38.40 56.37 34.50 C 55.92 32.83 47.24 14.21 46.43 13.17 C 46.29 12.99 45.12 13.35 43.84 13.98 L 41.50 15.11 L 43.79 13.11 C 45.05 12.01 48.56 10.19 51.58 9.06 C 56.84 7.09 59.08 7.00 103.29 7.02 C 128.70 7.02 150.00 7.36 150.60 7.77 C 153.64 9.80 154.00 13.28 154.00 40.98 L 154.00 69.09 L 151.55 71.55 L 149.09 74.00 L 104.30 73.90 C 79.66 73.84 57.73 73.38 55.56 72.88Z"/></g>
<g fill="#DBA48692">
<path d="M 43.03 67.91 L 38.76 64.81 L 43.93 61.85 C 47.29 59.93 50.16 57.25 52.11 54.20 L 55.12 49.50 L 54.56 58.00 C 54.25 62.67 54.00 67.56 54.00 68.87 C 54.00 71.29 53.29 71.37 48.59 69.44 C 47.24 68.89 46.89 69.01 47.39 69.83 C 48.51 71.64 47.66 71.26 43.03 67.91Z"/></g>
<g fill="#DBA48692">
<path d="M 81.25 74.25 C 93.76 74.09 114.24 74.09 126.75 74.25 C 139.26 74.41 129.03 74.54 104.00 74.54 C 78.97 74.54 68.74 74.41 81.25 74.25Z"/></g>
<g fill="#D18B64C1">
<path d="M 53.77 69.57 C 53.93 67.88 54.26 63.58 54.51 60.00 C 55.16 50.80 56.06 44.73 56.69 45.35 C 57.70 46.37 58.04 66.06 57.07 67.87 C 56.43 69.07 56.44 70.04 57.12 70.72 C 57.81 71.41 57.40 71.88 55.81 72.19 C 53.74 72.58 53.51 72.29 53.77 69.57Z"/></g>
<g fill="#DBA48692">
<path d="M 154.50 40.50 C 154.50 25.48 154.84 13.40 155.25 13.65 C 155.66 13.91 156.00 25.99 156.00 40.50 C 156.00 55.01 155.66 67.09 155.25 67.35 C 154.84 67.60 154.50 55.52 154.50 40.50Z"/></g>
<g fill="#DBA48692">
<path d="M 122.00 7.00 L 93.50 6.45 L 121.69 6.23 C 139.65 6.08 150.11 6.36 150.50 7.00 C 150.84 7.55 150.98 7.90 150.81 7.77 C 150.64 7.65 137.68 7.30 122.00 7.00Z"/></g>
<g fill="#D18B64C1">
<path d="M 154.43 40.50 C 154.43 26.75 154.57 20.99 154.75 27.69 C 154.92 34.40 154.92 45.65 154.75 52.69 C 154.58 59.74 154.43 54.25 154.43 40.50Z"/></g>
<g fill="#D18B64C1">
<path d="M 47.16 19.53 C 44.46 16.46 43.76 12.94 45.86 13.03 C 46.71 13.06 51.25 22.09 50.69 22.64 C 50.46 22.87 48.87 21.48 47.16 19.53Z"/></g>
<g fill="#DBA48692">
<path d="M 48.55 22.05 C 47.58 20.98 45.03 19.23 42.88 18.17 C 39.46 16.48 39.24 16.17 41.09 15.69 C 42.25 15.38 42.92 14.69 42.58 14.14 C 42.24 13.59 42.49 12.81 43.14 12.41 C 43.87 11.96 44.04 12.12 43.60 12.85 C 43.20 13.48 43.39 14.00 44.00 14.00 C 44.61 14.00 44.85 14.43 44.53 14.96 C 44.20 15.49 45.57 17.74 47.58 19.96 C 49.59 22.18 51.03 24.00 50.77 24.00 C 50.52 24.00 49.52 23.12 48.55 22.05Z"/></g>
<g fill="#DBA48692">
<path d="M 79.73 6.28 C 81.50 6.06 84.65 6.05 86.73 6.27 C 88.80 6.49 87.35 6.67 83.50 6.67 C 79.65 6.68 77.95 6.50 79.73 6.28Z"/></g>
</svg>
